<svg xmlns="http://www.w3.org/2000/svg" xmlns:v="https://svgstorm.com"
viewBox = "0 0 23 23"
width="23"
height="23">
<g fill="None" fill-opacity="0.0" stroke="#000000" stroke-opacity="0.00" stroke-width="0.3"><path d="
M 0.00 23.00 
L 23.00 23.00
L 23.00 0.00
L 0.00 0.00
L 0.00 23.00
M 20.00 3.00 
C 18.90 9.25 8.10 4.53 3.00 6.00
C 4.10 -0.25 14.90 4.47 20.00 3.00
M 20.00 10.00 
C 18.90 16.25 8.10 11.53 3.00 13.00
C 4.10 6.75 14.90 11.47 20.00 10.00
M 20.00 17.00 
C 18.90 23.25 8.10 18.53 3.00 20.00
C 4.10 13.75 14.90 18.47 20.00 17.00 Z"/>
</g>
<g fill="None" fill-opacity="0.0" stroke="#FEFFFF" stroke-opacity="0.59" stroke-width="0.3"><path d="
M 20.00 3.00 
C 14.90 4.47 4.10 -0.25 3.00 6.00
C 8.10 4.53 18.90 9.25 20.00 3.00 Z"/>
</g>
<g fill="None" fill-opacity="0.0" stroke="#FEFFFF" stroke-opacity="0.60" stroke-width="0.3"><path d="
M 20.00 10.00 
C 14.90 11.47 4.10 6.75 3.00 13.00
C 8.10 11.53 18.90 16.25 20.00 10.00 Z"/>
</g>
<g fill="None" fill-opacity="0.0" stroke="#FEFFFF" stroke-opacity="0.60" stroke-width="0.3"><path d="
M 20.00 17.00 
C 14.90 18.47 4.10 13.75 3.00 20.00
C 8.10 18.53 18.90 23.25 20.00 17.00 Z"/>
</g>
<g fill="#000000" fill-opacity="0.00" stroke="None">
<path d="
M 0.00 23.00 
L 23.00 23.00
L 23.00 0.00
L 0.00 0.00
L 0.00 23.00
M 20.00 3.00 
C 18.90 9.25 8.10 4.53 3.00 6.00
C 4.10 -0.25 14.90 4.47 20.00 3.00
M 20.00 10.00 
C 18.90 16.25 8.10 11.53 3.00 13.00
C 4.10 6.75 14.90 11.47 20.00 10.00
M 20.00 17.00 
C 18.90 23.25 8.10 18.53 3.00 20.00
C 4.10 13.75 14.90 18.47 20.00 17.00 Z"/>
</g>
<g fill="#FEFFFF" fill-opacity="0.59" stroke="None">
<path d="
M 20.00 3.00 
C 14.90 4.47 4.10 -0.25 3.00 6.00
C 8.10 4.53 18.90 9.25 20.00 3.00 Z"/>
</g>
<g fill="#FEFFFF" fill-opacity="0.60" stroke="None">
<path d="
M 20.00 10.00 
C 14.90 11.47 4.10 6.75 3.00 13.00
C 8.10 11.53 18.90 16.25 20.00 10.00 Z"/>
</g>
<g fill="#FEFFFF" fill-opacity="0.60" stroke="None">
<path d="
M 20.00 17.00 
C 14.90 18.47 4.10 13.75 3.00 20.00
C 8.10 18.53 18.90 23.25 20.00 17.00 Z"/>
</g>
</svg>